<svg class="railroad" viewBox="0 0 938 1094" xmlns="http://www.w3.org/2000/svg" xmlns:xlink="http://www.w3.org/1999/xlink">
<style type="text/css">
svg.railroad {
    background-color: hsl(30, 20%, 95%);
    background-size: 15px 15px;
    background-image: linear-gradient(to right, rgba(30, 30, 30, .05) 1px, transparent 1px),
    linear-gradient(to bottom, rgba(30, 30, 30, .05) 1px, transparent 1px);
}

svg.railroad path {
    stroke-width: 3px;
    stroke: black;
    fill: transparent;
}

svg.railroad .debug {
    stroke-width: 1px;
    stroke: red;
}

svg.railroad text {
    font-size: 14px;
    font-family: monospace;
    text-anchor: middle;
}

svg.railroad .nonterminal text {
    font-weight: bold;
}

svg.railroad text.comment {
    font-family: serif;
    font-style: italic;
    font-size: 12px;
}

svg.railroad rect {
    stroke-width: 3px;
    stroke: black;
}

svg.railroad g.labeledbox > rect {
    stroke-width: 1px;
    stroke: grey;
    stroke-dasharray: 5px;
    fill: rgba(90, 90, 150, .1);
}

svg.railroad .symbol > rect {
    fill: rgba(90, 90, 150, .1);
}

svg.railroad .regex > rect {
    fill: honeydew;
}

svg.railroad .string > rect {
    fill: cornsilk;
}

svg.railroad .character > rect {
    fill: lightcoral;
}
</style>
<g class="verticalgrid">
<g class="sequence">
<path d=" M 10 21 a 5 5 0 0 1 5 -5 a 5 5 0 0 1 5 5 a 5 5 0 0 1 -5 5 a 5 5 0 0 1 -5 -5 m 10 0 h 5"/>
<text class="comment" id="Value" x="57" y="26">
Value</text>
<g class="choice">
<path d=" M 90 21 h 24 m 68 0 h 32"/>
<a class="link" xlink:href="#Object">
<g class="symbol">
<rect height="22" width="68" x="114" y="10"/>
<text x="148" y="26">
Object</text>
</g>
</a>
<path d=" M 90 21 a 12 12 0 0 1 12 12 v 9 m 100 0 v -9 a 12 12 0 0 1 12 -12"/>
<path d=" M 102 42 v 33 m 100 0 v -33"/>
<path d=" M 102 75 v 33 m 100 0 v -33"/>
<path d=" M 102 108 v 33 m 100 0 v -33"/>
<path d=" M 102 141 v 33 m 100 0 v -33"/>
<path d=" M 102 42 v 0 a 12 12 0 0 0 12 12 m 60 0 h 16 a 12 12 0 0 0 12 -12 v 0"/>
<a class="link" xlink:href="#Array">
<g class="symbol">
<rect height="22" width="60" x="114" y="43"/>
<text x="144" y="59">
Array</text>
</g>
</a>
<path d=" M 102 75 v 0 a 12 12 0 0 0 12 12 m 68 0 h 8 a 12 12 0 0 0 12 -12 v 0"/>
<a class="link" xlink:href="#String">
<g class="symbol">
<rect height="22" width="68" x="114" y="76"/>
<text x="148" y="92">
String</text>
</g>
</a>
<path d=" M 102 108 v 0 a 12 12 0 0 0 12 12 m 68 0 h 8 a 12 12 0 0 0 12 -12 v 0"/>
<a class="link" xlink:href="#Number">
<g class="symbol">
<rect height="22" width="68" x="114" y="109"/>
<text x="148" y="125">
Number</text>
</g>
</a>
<path d=" M 102 141 v 0 a 12 12 0 0 0 12 12 m 76 0 h 0 a 12 12 0 0 0 12 -12 v 0"/>
<a class="link" xlink:href="#Boolean">
<g class="symbol">
<rect height="22" width="76" x="114" y="142"/>
<text x="152" y="158">
Boolean</text>
</g>
</a>
<path d=" M 102 174 v 0 a 12 12 0 0 0 12 12 m 52 0 h 24 a 12 12 0 0 0 12 -12 v 0"/>
<a class="link" xlink:href="#Null">
<g class="symbol">
<rect height="22" width="52" x="114" y="175"/>
<text x="140" y="191">
Null</text>
</g>
</a>
</g>
<path d=" M 224 21 h 5 a 5 5 0 0 1 5 -5 a 5 5 0 0 1 5 5 a 5 5 0 0 1 -5 5 a 5 5 0 0 1 -5 -5"/>
<path d=" M 25 21 h 10"/>
<path d=" M 80 21 h 10"/>
<path d=" M 214 21 h 10"/>
</g>
<g class="sequence">
<path d=" M 10 233 a 5 5 0 0 1 5 -5 a 5 5 0 0 1 5 5 a 5 5 0 0 1 -5 5 a 5 5 0 0 1 -5 -5 m 10 0 h 5"/>
<text class="comment" id="Object" x="61" y="238">
Object</text>
<g class="sequence">
<g class="string">
<rect height="22" rx="10" ry="10" width="28" x="97" y="222"/>
<text x="111" y="238">
{</text>
</g>
<g class="character">
<rect height="22" rx="10" ry="10" width="52" x="135" y="222"/>
<text x="161" y="238">
HIDE</text>
</g>
<g class="optional">
<path d=" M 197 233 h 24 m -24 0 a 12 12 0 0 0 12 -12 v 0 a 12 12 0 0 1 12 -12 h 558 m -276 0 l -5 -5 m 0 10 l 5 -5 m 276 0 a 12 12 0 0 1 12 12 v 0 a 12 12 0 0 0 12 12 h -24"/>
<g class="sequence">
<a class="link" xlink:href="#ObjectPair">
<g class="symbol">
<rect height="22" width="100" x="221" y="222"/>
<text x="271" y="238">
ObjectPair</text>
</g>
</a>
<g class="character">
<rect height="22" rx="10" ry="10" width="52" x="331" y="222"/>
<text x="357" y="238">
HIDE</text>
</g>
<g class="repeat">
<path d=" M 393 233 h 12 m 262 0 h 12 m -12 0 a 12 12 0 0 1 12 12 v 7 a 12 12 0 0 1 -12 12 m -52 0 h -210 m 108 0 l 5 -5 m 0 10 l -5 -5 m -108 0 a 12 12 0 0 1 -12 -12 v -7 a 12 12 0 0 1 12 -12"/>
<text class="comment" x="641" y="269">
[0, ∞]</text>
<g class="sequence">
<g class="character">
<rect height="22" rx="10" ry="10" width="52" x="405" y="222"/>
<text x="431" y="238">
HIDE</text>
</g>
<g class="sequence">
<g class="string">
<rect height="22" rx="10" ry="10" width="28" x="467" y="222"/>
<text x="481" y="238">
,</text>
</g>
<g class="character">
<rect height="22" rx="10" ry="10" width="52" x="505" y="222"/>
<text x="531" y="238">
HIDE</text>
</g>
<a class="link" xlink:href="#ObjectPair">
<g class="symbol">
<rect height="22" width="100" x="567" y="222"/>
<text x="617" y="238">
ObjectPair</text>
</g>
</a>
<path d=" M 495 233 h 10"/>
<path d=" M 557 233 h 10"/>
</g>
<path d=" M 457 233 h 10"/>
</g>
</g>
<g class="character">
<rect height="22" rx="10" ry="10" width="52" x="689" y="222"/>
<text x="715" y="238">
HIDE</text>
</g>
<g class="string">
<rect height="22" rx="10" ry="10" width="28" x="751" y="222"/>
<text x="765" y="238">
,</text>
</g>
<path d=" M 321 233 h 10"/>
<path d=" M 383 233 h 10"/>
<path d=" M 679 233 h 10"/>
<path d=" M 741 233 h 10"/>
</g>
</g>
<g class="character">
<rect height="22" rx="10" ry="10" width="52" x="813" y="222"/>
<text x="839" y="238">
HIDE</text>
</g>
<g class="string">
<rect height="22" rx="10" ry="10" width="28" x="875" y="222"/>
<text x="889" y="238">
}</text>
</g>
<path d=" M 125 233 h 10"/>
<path d=" M 187 233 h 10"/>
<path d=" M 803 233 h 10"/>
<path d=" M 865 233 h 10"/>
</g>
<path d=" M 913 233 h 5 a 5 5 0 0 1 5 -5 a 5 5 0 0 1 5 5 a 5 5 0 0 1 -5 5 a 5 5 0 0 1 -5 -5"/>
<path d=" M 25 233 h 10"/>
<path d=" M 87 233 h 10"/>
<path d=" M 903 233 h 10"/>
</g>
<g class="sequence">
<path d=" M 10 297 a 5 5 0 0 1 5 -5 a 5 5 0 0 1 5 5 a 5 5 0 0 1 -5 5 a 5 5 0 0 1 -5 -5 m 10 0 h 5"/>
<text class="comment" id="ObjectPair" x="75" y="302">
ObjectPair</text>
<g class="sequence">
<a class="link" xlink:href="#ObjectKey">
<g class="symbol">
<rect height="22" width="92" x="125" y="286"/>
<text x="171" y="302">
ObjectKey</text>
</g>
</a>
<g class="character">
<rect height="22" rx="10" ry="10" width="52" x="227" y="286"/>
<text x="253" y="302">
HIDE</text>
</g>
<a class="link" xlink:href="#COLON">
<g class="symbol">
<rect height="22" width="60" x="289" y="286"/>
<text x="319" y="302">
COLON</text>
</g>
</a>
<g class="character">
<rect height="22" rx="10" ry="10" width="52" x="359" y="286"/>
<text x="385" y="302">
HIDE</text>
</g>
<a class="link" xlink:href="#Value">
<g class="symbol">
<rect height="22" width="60" x="421" y="286"/>
<text x="451" y="302">
Value</text>
</g>
</a>
<path d=" M 217 297 h 10"/>
<path d=" M 279 297 h 10"/>
<path d=" M 349 297 h 10"/>
<path d=" M 411 297 h 10"/>
</g>
<path d=" M 491 297 h 5 a 5 5 0 0 1 5 -5 a 5 5 0 0 1 5 5 a 5 5 0 0 1 -5 5 a 5 5 0 0 1 -5 -5"/>
<path d=" M 25 297 h 10"/>
<path d=" M 115 297 h 10"/>
<path d=" M 481 297 h 10"/>
</g>
<g class="sequence">
<path d=" M 10 331 a 5 5 0 0 1 5 -5 a 5 5 0 0 1 5 5 a 5 5 0 0 1 -5 5 a 5 5 0 0 1 -5 -5 m 10 0 h 5"/>
<text class="comment" id="COLON" x="57" y="336">
COLON</text>
<g class="string">
<rect height="22" rx="10" ry="10" width="28" x="90" y="320"/>
<text x="104" y="336">
:</text>
</g>
<path d=" M 128 331 h 5 a 5 5 0 0 1 5 -5 a 5 5 0 0 1 5 5 a 5 5 0 0 1 -5 5 a 5 5 0 0 1 -5 -5"/>
<path d=" M 25 331 h 10"/>
<path d=" M 80 331 h 10"/>
<path d=" M 118 331 h 10"/>
</g>
<g class="sequence">
<path d=" M 10 365 a 5 5 0 0 1 5 -5 a 5 5 0 0 1 5 5 a 5 5 0 0 1 -5 5 a 5 5 0 0 1 -5 -5 m 10 0 h 5"/>
<text class="comment" id="ObjectKey" x="71" y="370">
ObjectKey</text>
<g class="choice">
<path d=" M 118 365 h 24 m 100 0 h 24"/>
<a class="link" xlink:href="#Identifier">
<g class="symbol">
<rect height="22" width="100" x="142" y="354"/>
<text x="192" y="370">
Identifier</text>
</g>
</a>
<path d=" M 118 365 a 12 12 0 0 1 12 12 v 9 m 124 0 v -9 a 12 12 0 0 1 12 -12"/>
<path d=" M 130 386 v 0 a 12 12 0 0 0 12 12 m 68 0 h 32 a 12 12 0 0 0 12 -12 v 0"/>
<a class="link" xlink:href="#String">
<g class="symbol">
<rect height="22" width="68" x="142" y="387"/>
<text x="176" y="403">
String</text>
</g>
</a>
</g>
<path d=" M 276 365 h 5 a 5 5 0 0 1 5 -5 a 5 5 0 0 1 5 5 a 5 5 0 0 1 -5 5 a 5 5 0 0 1 -5 -5"/>
<path d=" M 25 365 h 10"/>
<path d=" M 108 365 h 10"/>
<path d=" M 266 365 h 10"/>
</g>
<g class="sequence">
<path d=" M 10 445 a 5 5 0 0 1 5 -5 a 5 5 0 0 1 5 5 a 5 5 0 0 1 -5 5 a 5 5 0 0 1 -5 -5 m 10 0 h 5"/>
<text class="comment" id="Array" x="57" y="450">
Array</text>
<g class="sequence">
<g class="string">
<rect height="22" rx="10" ry="10" width="28" x="90" y="434"/>
<text x="104" y="450">
[</text>
</g>
<g class="character">
<rect height="22" rx="10" ry="10" width="52" x="128" y="434"/>
<text x="154" y="450">
HIDE</text>
</g>
<g class="optional">
<path d=" M 190 445 h 24 m -24 0 a 12 12 0 0 0 12 -12 v 0 a 12 12 0 0 1 12 -12 h 478 m -236 0 l -5 -5 m 0 10 l 5 -5 m 236 0 a 12 12 0 0 1 12 12 v 0 a 12 12 0 0 0 12 12 h -24"/>
<g class="sequence">
<a class="link" xlink:href="#Value">
<g class="symbol">
<rect height="22" width="60" x="214" y="434"/>
<text x="244" y="450">
Value</text>
</g>
</a>
<g class="character">
<rect height="22" rx="10" ry="10" width="52" x="284" y="434"/>
<text x="310" y="450">
HIDE</text>
</g>
<g class="repeat">
<path d=" M 346 445 h 12 m 222 0 h 12 m -12 0 a 12 12 0 0 1 12 12 v 7 a 12 12 0 0 1 -12 12 m -52 0 h -170 m 88 0 l 5 -5 m 0 10 l -5 -5 m -88 0 a 12 12 0 0 1 -12 -12 v -7 a 12 12 0 0 1 12 -12"/>
<text class="comment" x="554" y="481">
[0, ∞]</text>
<g class="sequence">
<g class="character">
<rect height="22" rx="10" ry="10" width="52" x="358" y="434"/>
<text x="384" y="450">
HIDE</text>
</g>
<g class="sequence">
<g class="string">
<rect height="22" rx="10" ry="10" width="28" x="420" y="434"/>
<text x="434" y="450">
,</text>
</g>
<g class="character">
<rect height="22" rx="10" ry="10" width="52" x="458" y="434"/>
<text x="484" y="450">
HIDE</text>
</g>
<a class="link" xlink:href="#Value">
<g class="symbol">
<rect height="22" width="60" x="520" y="434"/>
<text x="550" y="450">
Value</text>
</g>
</a>
<path d=" M 448 445 h 10"/>
<path d=" M 510 445 h 10"/>
</g>
<path d=" M 410 445 h 10"/>
</g>
</g>
<g class="character">
<rect height="22" rx="10" ry="10" width="52" x="602" y="434"/>
<text x="628" y="450">
HIDE</text>
</g>
<g class="string">
<rect height="22" rx="10" ry="10" width="28" x="664" y="434"/>
<text x="678" y="450">
,</text>
</g>
<path d=" M 274 445 h 10"/>
<path d=" M 336 445 h 10"/>
<path d=" M 592 445 h 10"/>
<path d=" M 654 445 h 10"/>
</g>
</g>
<g class="character">
<rect height="22" rx="10" ry="10" width="52" x="726" y="434"/>
<text x="752" y="450">
HIDE</text>
</g>
<g class="string">
<rect height="22" rx="10" ry="10" width="28" x="788" y="434"/>
<text x="802" y="450">
]</text>
</g>
<path d=" M 118 445 h 10"/>
<path d=" M 180 445 h 10"/>
<path d=" M 716 445 h 10"/>
<path d=" M 778 445 h 10"/>
</g>
<path d=" M 826 445 h 5 a 5 5 0 0 1 5 -5 a 5 5 0 0 1 5 5 a 5 5 0 0 1 -5 5 a 5 5 0 0 1 -5 -5"/>
<path d=" M 25 445 h 10"/>
<path d=" M 80 445 h 10"/>
<path d=" M 816 445 h 10"/>
</g>
<g class="sequence">
<path d=" M 10 509 a 5 5 0 0 1 5 -5 a 5 5 0 0 1 5 5 a 5 5 0 0 1 -5 5 a 5 5 0 0 1 -5 -5 m 10 0 h 5"/>
<text class="comment" id="String" x="61" y="514">
String</text>
<g class="choice">
<path d=" M 97 509 h 24 m 224 0 h 24"/>
<g class="sequence">
<g class="string">
<rect height="22" rx="10" ry="10" width="28" x="121" y="498"/>
<text x="135" y="514">
&quot;</text>
</g>
<g class="repeat">
<path d=" M 159 509 h 12 m 124 0 h 12 m -12 0 a 12 12 0 0 1 12 12 v 7 a 12 12 0 0 1 -12 12 m -52 0 h -72 m 39 0 l 5 -5 m 0 10 l -5 -5 m -39 0 a 12 12 0 0 1 -12 -12 v -7 a 12 12 0 0 1 12 -12"/>
<text class="comment" x="269" y="545">
[0, ∞]</text>
<a class="link" xlink:href="#StringElement">
<g class="symbol">
<rect height="22" width="124" x="171" y="498"/>
<text x="233" y="514">
StringElement</text>
</g>
</a>
</g>
<g class="string">
<rect height="22" rx="10" ry="10" width="28" x="317" y="498"/>
<text x="331" y="514">
&quot;</text>
</g>
<path d=" M 149 509 h 10"/>
<path d=" M 307 509 h 10"/>
</g>
<path d=" M 97 509 a 12 12 0 0 1 12 12 v 39 m 248 0 v -39 a 12 12 0 0 1 12 -12"/>
<path d=" M 109 560 v 0 a 12 12 0 0 0 12 12 m 224 0 h 0 a 12 12 0 0 0 12 -12 v 0"/>
<g class="sequence">
<g class="string">
<rect height="22" rx="10" ry="10" width="28" x="121" y="561"/>
<text x="135" y="577">
&#x27;</text>
</g>
<g class="repeat">
<path d=" M 159 572 h 12 m 124 0 h 12 m -12 0 a 12 12 0 0 1 12 12 v 7 a 12 12 0 0 1 -12 12 m -52 0 h -72 m 39 0 l 5 -5 m 0 10 l -5 -5 m -39 0 a 12 12 0 0 1 -12 -12 v -7 a 12 12 0 0 1 12 -12"/>
<text class="comment" x="269" y="608">
[0, ∞]</text>
<a class="link" xlink:href="#StringElement">
<g class="symbol">
<rect height="22" width="124" x="171" y="561"/>
<text x="233" y="577">
StringElement</text>
</g>
</a>
</g>
<g class="string">
<rect height="22" rx="10" ry="10" width="28" x="317" y="561"/>
<text x="331" y="577">
&#x27;</text>
</g>
<path d=" M 149 572 h 10"/>
<path d=" M 307 572 h 10"/>
</g>
</g>
<path d=" M 379 509 h 5 a 5 5 0 0 1 5 -5 a 5 5 0 0 1 5 5 a 5 5 0 0 1 -5 5 a 5 5 0 0 1 -5 -5"/>
<path d=" M 25 509 h 10"/>
<path d=" M 87 509 h 10"/>
<path d=" M 369 509 h 10"/>
</g>
<g class="sequence">
<path d=" M 10 636 a 5 5 0 0 1 5 -5 a 5 5 0 0 1 5 5 a 5 5 0 0 1 -5 5 a 5 5 0 0 1 -5 -5 m 10 0 h 5"/>
<text class="comment" id="StringElement" x="85" y="641">
StringElement</text>
<g class="choice">
<path d=" M 146 636 h 24 m 122 0 h 24"/>
<g class="sequence">
<g class="string">
<rect height="22" rx="10" ry="10" width="28" x="170" y="625"/>
<text x="184" y="641">
\</text>
</g>
<a class="link" xlink:href="#HexDigit">
<g class="symbol">
<rect height="22" width="84" x="208" y="625"/>
<text x="250" y="641">
HexDigit</text>
</g>
</a>
<path d=" M 198 636 h 10"/>
</g>
<path d=" M 146 636 a 12 12 0 0 1 12 12 v 9 m 146 0 v -9 a 12 12 0 0 1 12 -12"/>
<path d=" M 158 657 v 33 m 146 0 v -33"/>
<path d=" M 158 657 v 0 a 12 12 0 0 0 12 12 m 114 0 h 8 a 12 12 0 0 0 12 -12 v 0"/>
<g class="sequence">
<g class="string">
<rect height="22" rx="10" ry="10" width="28" x="170" y="658"/>
<text x="184" y="674">
\</text>
</g>
<a class="link" xlink:href="#Escaped">
<g class="symbol">
<rect height="22" width="76" x="208" y="658"/>
<text x="246" y="674">
Escaped</text>
</g>
</a>
<path d=" M 198 669 h 10"/>
</g>
<path d=" M 158 690 v 0 a 12 12 0 0 0 12 12 m 100 0 h 22 a 12 12 0 0 0 12 -12 v 0"/>
<a class="link" xlink:href="#StringText">
<g class="symbol">
<rect height="22" width="100" x="170" y="691"/>
<text x="220" y="707">
StringText</text>
</g>
</a>
</g>
<path d=" M 326 636 h 5 a 5 5 0 0 1 5 -5 a 5 5 0 0 1 5 5 a 5 5 0 0 1 -5 5 a 5 5 0 0 1 -5 -5"/>
<path d=" M 25 636 h 10"/>
<path d=" M 136 636 h 10"/>
<path d=" M 316 636 h 10"/>
</g>
<g class="sequence">
<path d=" M 10 736 a 5 5 0 0 1 5 -5 a 5 5 0 0 1 5 5 a 5 5 0 0 1 -5 5 a 5 5 0 0 1 -5 -5 m 10 0 h 5"/>
<text class="comment" id="HexDigit" x="68" y="741">
HexDigit</text>
<g class="string">
<rect height="22" rx="10" ry="10" width="132" x="111" y="725"/>
<text x="177" y="741">
[0-9a-fA-F]{4}</text>
</g>
<path d=" M 253 736 h 5 a 5 5 0 0 1 5 -5 a 5 5 0 0 1 5 5 a 5 5 0 0 1 -5 5 a 5 5 0 0 1 -5 -5"/>
<path d=" M 25 736 h 10"/>
<path d=" M 101 736 h 10"/>
<path d=" M 243 736 h 10"/>
</g>
<g class="sequence">
<path d=" M 10 770 a 5 5 0 0 1 5 -5 a 5 5 0 0 1 5 5 a 5 5 0 0 1 -5 5 a 5 5 0 0 1 -5 -5 m 10 0 h 5"/>
<text class="comment" id="Escaped" x="64" y="775">
Escaped</text>
<g class="character">
<rect height="22" rx="10" ry="10" width="44" x="104" y="759"/>
<text x="126" y="775">
ANY</text>
</g>
<path d=" M 158 770 h 5 a 5 5 0 0 1 5 -5 a 5 5 0 0 1 5 5 a 5 5 0 0 1 -5 5 a 5 5 0 0 1 -5 -5"/>
<path d=" M 25 770 h 10"/>
<path d=" M 94 770 h 10"/>
<path d=" M 148 770 h 10"/>
</g>
<g class="sequence">
<path d=" M 10 804 a 5 5 0 0 1 5 -5 a 5 5 0 0 1 5 5 a 5 5 0 0 1 -5 5 a 5 5 0 0 1 -5 -5 m 10 0 h 5"/>
<text class="comment" id="StringText" x="75" y="809">
StringText</text>
<g class="string">
<rect height="22" rx="10" ry="10" width="84" x="125" y="793"/>
<text x="167" y="809">
[^&quot;&#x27;\\]+</text>
</g>
<path d=" M 219 804 h 5 a 5 5 0 0 1 5 -5 a 5 5 0 0 1 5 5 a 5 5 0 0 1 -5 5 a 5 5 0 0 1 -5 -5"/>
<path d=" M 25 804 h 10"/>
<path d=" M 115 804 h 10"/>
<path d=" M 209 804 h 10"/>
</g>
<g class="sequence">
<path d=" M 10 838 a 5 5 0 0 1 5 -5 a 5 5 0 0 1 5 5 a 5 5 0 0 1 -5 5 a 5 5 0 0 1 -5 -5 m 10 0 h 5"/>
<text class="comment" id="Number" x="61" y="843">
Number</text>
<g class="string">
<rect height="22" rx="10" ry="10" width="188" x="97" y="827"/>
<text x="191" y="843">
[+-]?(0|[1-9][0-9]*)</text>
</g>
<path d=" M 295 838 h 5 a 5 5 0 0 1 5 -5 a 5 5 0 0 1 5 5 a 5 5 0 0 1 -5 5 a 5 5 0 0 1 -5 -5"/>
<path d=" M 25 838 h 10"/>
<path d=" M 87 838 h 10"/>
<path d=" M 285 838 h 10"/>
</g>
<g class="sequence">
<path d=" M 10 872 a 5 5 0 0 1 5 -5 a 5 5 0 0 1 5 5 a 5 5 0 0 1 -5 5 a 5 5 0 0 1 -5 -5 m 10 0 h 5"/>
<text class="comment" id="Boolean" x="64" y="877">
Boolean</text>
<g class="choice">
<path d=" M 104 872 h 24 m 52 0 h 32"/>
<g class="string">
<rect height="22" rx="10" ry="10" width="52" x="128" y="861"/>
<text x="154" y="877">
true</text>
</g>
<path d=" M 104 872 a 12 12 0 0 1 12 12 v 9 m 84 0 v -9 a 12 12 0 0 1 12 -12"/>
<path d=" M 116 893 v 0 a 12 12 0 0 0 12 12 m 60 0 h 0 a 12 12 0 0 0 12 -12 v 0"/>
<g class="string">
<rect height="22" rx="10" ry="10" width="60" x="128" y="894"/>
<text x="158" y="910">
false</text>
</g>
</g>
<path d=" M 222 872 h 5 a 5 5 0 0 1 5 -5 a 5 5 0 0 1 5 5 a 5 5 0 0 1 -5 5 a 5 5 0 0 1 -5 -5"/>
<path d=" M 25 872 h 10"/>
<path d=" M 94 872 h 10"/>
<path d=" M 212 872 h 10"/>
</g>
<g class="sequence">
<path d=" M 10 939 a 5 5 0 0 1 5 -5 a 5 5 0 0 1 5 5 a 5 5 0 0 1 -5 5 a 5 5 0 0 1 -5 -5 m 10 0 h 5"/>
<text class="comment" id="Null" x="54" y="944">
Null</text>
<g class="string">
<rect height="22" rx="10" ry="10" width="52" x="83" y="928"/>
<text x="109" y="944">
null</text>
</g>
<path d=" M 145 939 h 5 a 5 5 0 0 1 5 -5 a 5 5 0 0 1 5 5 a 5 5 0 0 1 -5 5 a 5 5 0 0 1 -5 -5"/>
<path d=" M 25 939 h 10"/>
<path d=" M 73 939 h 10"/>
<path d=" M 135 939 h 10"/>
</g>
<g class="sequence">
<path d=" M 10 973 a 5 5 0 0 1 5 -5 a 5 5 0 0 1 5 5 a 5 5 0 0 1 -5 5 a 5 5 0 0 1 -5 -5 m 10 0 h 5"/>
<text class="comment" id="Identifier" x="75" y="978">
Identifier</text>
<g class="string">
<rect height="22" rx="10" ry="10" width="308" x="125" y="962"/>
<text x="279" y="978">
[_\p{XID_start}][\p{XID_continue}]*</text>
</g>
<path d=" M 443 973 h 5 a 5 5 0 0 1 5 -5 a 5 5 0 0 1 5 5 a 5 5 0 0 1 -5 5 a 5 5 0 0 1 -5 -5"/>
<path d=" M 25 973 h 10"/>
<path d=" M 115 973 h 10"/>
<path d=" M 433 973 h 10"/>
</g>
<g class="sequence">
<path d=" M 10 1007 a 5 5 0 0 1 5 -5 a 5 5 0 0 1 5 5 a 5 5 0 0 1 -5 5 a 5 5 0 0 1 -5 -5 m 10 0 h 5"/>
<text class="comment" id="WhiteSpace" x="75" y="1012">
WhiteSpace</text>
<g class="choice">
<path d=" M 125 1007 h 24 m 28 0 h 32"/>
<g class="string">
<rect height="22" rx="10" ry="10" width="28" x="149" y="996"/>
<text x="163" y="1012">
 </text>
</g>
<path d=" M 125 1007 a 12 12 0 0 1 12 12 v 9 m 60 0 v -9 a 12 12 0 0 1 12 -12"/>
<path d=" M 137 1028 v 33 m 60 0 v -33"/>
<path d=" M 137 1028 v 0 a 12 12 0 0 0 12 12 m 36 0 h 0 a 12 12 0 0 0 12 -12 v 0"/>
<g class="string">
<rect height="22" rx="10" ry="10" width="36" x="149" y="1029"/>
<text x="167" y="1045">
\n</text>
</g>
<path d=" M 137 1061 v 0 a 12 12 0 0 0 12 12 m 36 0 h 0 a 12 12 0 0 0 12 -12 v 0"/>
<g class="string">
<rect height="22" rx="10" ry="10" width="36" x="149" y="1062"/>
<text x="167" y="1078">
\r</text>
</g>
</g>
<path d=" M 219 1007 h 5 a 5 5 0 0 1 5 -5 a 5 5 0 0 1 5 5 a 5 5 0 0 1 -5 5 a 5 5 0 0 1 -5 -5"/>
<path d=" M 25 1007 h 10"/>
<path d=" M 115 1007 h 10"/>
<path d=" M 209 1007 h 10"/>
</g>
</g>
</svg>
