<svg class="railroad" viewBox="0 0 1002 1162" xmlns="http://www.w3.org/2000/svg" xmlns:xlink="http://www.w3.org/1999/xlink">
<style type="text/css">
svg.railroad {
    background-color: hsl(30, 20%, 95%);
    background-size: 15px 15px;
    background-image: linear-gradient(to right, rgba(30, 30, 30, .05) 1px, transparent 1px),
    linear-gradient(to bottom, rgba(30, 30, 30, .05) 1px, transparent 1px);
}

svg.railroad path {
    stroke-width: 3px;
    stroke: black;
    fill: transparent;
}

svg.railroad .debug {
    stroke-width: 1px;
    stroke: red;
}

svg.railroad text {
    font-size: 14px;
    font-family: monospace;
    text-anchor: middle;
}

svg.railroad .nonterminal text {
    font-weight: bold;
}

svg.railroad text.comment {
    font-family: serif;
    font-style: italic;
    font-size: 12px;
}

svg.railroad rect {
    stroke-width: 3px;
    stroke: black;
}

svg.railroad g.labeledbox > rect {
    stroke-width: 1px;
    stroke: grey;
    stroke-dasharray: 5px;
    fill: rgba(90, 90, 150, .1);
}

svg.railroad .symbol > rect {
    fill: rgba(90, 90, 150, .1);
}

svg.railroad .regex > rect {
    fill: honeydew;
}

svg.railroad .string > rect {
    fill: cornsilk;
}

svg.railroad .character > rect {
    fill: lightcoral;
}
</style>
<g class="verticalgrid">
<g class="sequence">
<path d=" M 10 21 a 5 5 0 0 1 5 -5 a 5 5 0 0 1 5 5 a 5 5 0 0 1 -5 5 a 5 5 0 0 1 -5 -5 m 10 0 h 5"/>
<text class="comment" id="Value" x="57" y="26">
Value</text>
<g class="choice">
<path d=" M 90 21 h 24 m 68 0 h 32"/>
<a class="link" xlink:href="#Object">
<g class="symbol">
<rect height="22" width="68" x="114" y="10"/>
<text x="148" y="26">
Object</text>
</g>
</a>
<path d=" M 90 21 a 12 12 0 0 1 12 12 v 9 m 100 0 v -9 a 12 12 0 0 1 12 -12"/>
<path d=" M 102 42 v 33 m 100 0 v -33"/>
<path d=" M 102 75 v 33 m 100 0 v -33"/>
<path d=" M 102 108 v 33 m 100 0 v -33"/>
<path d=" M 102 141 v 33 m 100 0 v -33"/>
<path d=" M 102 42 v 0 a 12 12 0 0 0 12 12 m 60 0 h 16 a 12 12 0 0 0 12 -12 v 0"/>
<a class="link" xlink:href="#Array">
<g class="symbol">
<rect height="22" width="60" x="114" y="43"/>
<text x="144" y="59">
Array</text>
</g>
</a>
<path d=" M 102 75 v 0 a 12 12 0 0 0 12 12 m 68 0 h 8 a 12 12 0 0 0 12 -12 v 0"/>
<a class="link" xlink:href="#String">
<g class="symbol">
<rect height="22" width="68" x="114" y="76"/>
<text x="148" y="92">
String</text>
</g>
</a>
<path d=" M 102 108 v 0 a 12 12 0 0 0 12 12 m 68 0 h 8 a 12 12 0 0 0 12 -12 v 0"/>
<a class="link" xlink:href="#Number">
<g class="symbol">
<rect height="22" width="68" x="114" y="109"/>
<text x="148" y="125">
Number</text>
</g>
</a>
<path d=" M 102 141 v 0 a 12 12 0 0 0 12 12 m 76 0 h 0 a 12 12 0 0 0 12 -12 v 0"/>
<a class="link" xlink:href="#Boolean">
<g class="symbol">
<rect height="22" width="76" x="114" y="142"/>
<text x="152" y="158">
Boolean</text>
</g>
</a>
<path d=" M 102 174 v 0 a 12 12 0 0 0 12 12 m 52 0 h 24 a 12 12 0 0 0 12 -12 v 0"/>
<a class="link" xlink:href="#Null">
<g class="symbol">
<rect height="22" width="52" x="114" y="175"/>
<text x="140" y="191">
Null</text>
</g>
</a>
</g>
<path d=" M 224 21 h 5 a 5 5 0 0 1 5 -5 a 5 5 0 0 1 5 5 a 5 5 0 0 1 -5 5 a 5 5 0 0 1 -5 -5"/>
<path d=" M 25 21 h 10"/>
<path d=" M 80 21 h 10"/>
<path d=" M 214 21 h 10"/>
</g>
<g class="sequence">
<path d=" M 10 233 a 5 5 0 0 1 5 -5 a 5 5 0 0 1 5 5 a 5 5 0 0 1 -5 5 a 5 5 0 0 1 -5 -5 m 10 0 h 5"/>
<text class="comment" id="Object" x="61" y="238">
Object</text>
<g class="sequence">
<g class="string">
<rect height="22" rx="10" ry="10" width="28" x="97" y="222"/>
<text x="111" y="238">
{</text>
</g>
<g class="character">
<rect height="22" rx="10" ry="10" width="52" x="135" y="222"/>
<text x="161" y="238">
HIDE</text>
</g>
<g class="optional">
<path d=" M 197 233 h 24 m -24 0 a 12 12 0 0 0 12 -12 v 0 a 12 12 0 0 1 12 -12 h 622 m -308 0 l -5 -5 m 0 10 l 5 -5 m 308 0 a 12 12 0 0 1 12 12 v 0 a 12 12 0 0 0 12 12 h -24"/>
<g class="sequence">
<a class="link" xlink:href="#ObjectPair">
<g class="symbol">
<rect height="22" width="100" x="221" y="222"/>
<text x="271" y="238">
ObjectPair</text>
</g>
</a>
<g class="character">
<rect height="22" rx="10" ry="10" width="52" x="331" y="222"/>
<text x="357" y="238">
HIDE</text>
</g>
<g class="repeat">
<path d=" M 393 233 h 12 m 294 0 h 12 m -12 0 a 12 12 0 0 1 12 12 v 7 a 12 12 0 0 1 -12 12 m -52 0 h -242 m 124 0 l 5 -5 m 0 10 l -5 -5 m -124 0 a 12 12 0 0 1 -12 -12 v -7 a 12 12 0 0 1 12 -12"/>
<text class="comment" x="673" y="269">
[0, ∞]</text>
<g class="sequence">
<g class="character">
<rect height="22" rx="10" ry="10" width="52" x="405" y="222"/>
<text x="431" y="238">
HIDE</text>
</g>
<g class="sequence">
<a class="link" xlink:href="#COMMA">
<g class="symbol">
<rect height="22" width="60" x="467" y="222"/>
<text x="497" y="238">
COMMA</text>
</g>
</a>
<g class="character">
<rect height="22" rx="10" ry="10" width="52" x="537" y="222"/>
<text x="563" y="238">
HIDE</text>
</g>
<a class="link" xlink:href="#ObjectPair">
<g class="symbol">
<rect height="22" width="100" x="599" y="222"/>
<text x="649" y="238">
ObjectPair</text>
</g>
</a>
<path d=" M 527 233 h 10"/>
<path d=" M 589 233 h 10"/>
</g>
<path d=" M 457 233 h 10"/>
</g>
</g>
<g class="character">
<rect height="22" rx="10" ry="10" width="52" x="721" y="222"/>
<text x="747" y="238">
HIDE</text>
</g>
<a class="link" xlink:href="#COMMA">
<g class="symbol">
<rect height="22" width="60" x="783" y="222"/>
<text x="813" y="238">
COMMA</text>
</g>
</a>
<path d=" M 321 233 h 10"/>
<path d=" M 383 233 h 10"/>
<path d=" M 711 233 h 10"/>
<path d=" M 773 233 h 10"/>
</g>
</g>
<g class="character">
<rect height="22" rx="10" ry="10" width="52" x="877" y="222"/>
<text x="903" y="238">
HIDE</text>
</g>
<g class="string">
<rect height="22" rx="10" ry="10" width="28" x="939" y="222"/>
<text x="953" y="238">
}</text>
</g>
<path d=" M 125 233 h 10"/>
<path d=" M 187 233 h 10"/>
<path d=" M 867 233 h 10"/>
<path d=" M 929 233 h 10"/>
</g>
<path d=" M 977 233 h 5 a 5 5 0 0 1 5 -5 a 5 5 0 0 1 5 5 a 5 5 0 0 1 -5 5 a 5 5 0 0 1 -5 -5"/>
<path d=" M 25 233 h 10"/>
<path d=" M 87 233 h 10"/>
<path d=" M 967 233 h 10"/>
</g>
<g class="sequence">
<path d=" M 10 297 a 5 5 0 0 1 5 -5 a 5 5 0 0 1 5 5 a 5 5 0 0 1 -5 5 a 5 5 0 0 1 -5 -5 m 10 0 h 5"/>
<text class="comment" id="ObjectPair" x="75" y="302">
ObjectPair</text>
<g class="sequence">
<a class="link" xlink:href="#ObjectKey">
<g class="symbol">
<rect height="22" width="92" x="125" y="286"/>
<text x="171" y="302">
ObjectKey</text>
</g>
</a>
<g class="character">
<rect height="22" rx="10" ry="10" width="52" x="227" y="286"/>
<text x="253" y="302">
HIDE</text>
</g>
<a class="link" xlink:href="#COLON">
<g class="symbol">
<rect height="22" width="60" x="289" y="286"/>
<text x="319" y="302">
COLON</text>
</g>
</a>
<g class="character">
<rect height="22" rx="10" ry="10" width="52" x="359" y="286"/>
<text x="385" y="302">
HIDE</text>
</g>
<a class="link" xlink:href="#Value">
<g class="symbol">
<rect height="22" width="60" x="421" y="286"/>
<text x="451" y="302">
Value</text>
</g>
</a>
<path d=" M 217 297 h 10"/>
<path d=" M 279 297 h 10"/>
<path d=" M 349 297 h 10"/>
<path d=" M 411 297 h 10"/>
</g>
<path d=" M 491 297 h 5 a 5 5 0 0 1 5 -5 a 5 5 0 0 1 5 5 a 5 5 0 0 1 -5 5 a 5 5 0 0 1 -5 -5"/>
<path d=" M 25 297 h 10"/>
<path d=" M 115 297 h 10"/>
<path d=" M 481 297 h 10"/>
</g>
<g class="sequence">
<path d=" M 10 331 a 5 5 0 0 1 5 -5 a 5 5 0 0 1 5 5 a 5 5 0 0 1 -5 5 a 5 5 0 0 1 -5 -5 m 10 0 h 5"/>
<text class="comment" id="ObjectKey" x="71" y="336">
ObjectKey</text>
<g class="choice">
<path d=" M 118 331 h 24 m 100 0 h 24"/>
<a class="link" xlink:href="#Identifier">
<g class="symbol">
<rect height="22" width="100" x="142" y="320"/>
<text x="192" y="336">
Identifier</text>
</g>
</a>
<path d=" M 118 331 a 12 12 0 0 1 12 12 v 9 m 124 0 v -9 a 12 12 0 0 1 12 -12"/>
<path d=" M 130 352 v 0 a 12 12 0 0 0 12 12 m 68 0 h 32 a 12 12 0 0 0 12 -12 v 0"/>
<a class="link" xlink:href="#String">
<g class="symbol">
<rect height="22" width="68" x="142" y="353"/>
<text x="176" y="369">
String</text>
</g>
</a>
</g>
<path d=" M 276 331 h 5 a 5 5 0 0 1 5 -5 a 5 5 0 0 1 5 5 a 5 5 0 0 1 -5 5 a 5 5 0 0 1 -5 -5"/>
<path d=" M 25 331 h 10"/>
<path d=" M 108 331 h 10"/>
<path d=" M 266 331 h 10"/>
</g>
<g class="sequence">
<path d=" M 10 411 a 5 5 0 0 1 5 -5 a 5 5 0 0 1 5 5 a 5 5 0 0 1 -5 5 a 5 5 0 0 1 -5 -5 m 10 0 h 5"/>
<text class="comment" id="Array" x="57" y="416">
Array</text>
<g class="sequence">
<g class="string">
<rect height="22" rx="10" ry="10" width="28" x="90" y="400"/>
<text x="104" y="416">
[</text>
</g>
<g class="character">
<rect height="22" rx="10" ry="10" width="52" x="128" y="400"/>
<text x="154" y="416">
HIDE</text>
</g>
<g class="optional">
<path d=" M 190 411 h 24 m -24 0 a 12 12 0 0 0 12 -12 v 0 a 12 12 0 0 1 12 -12 h 542 m -268 0 l -5 -5 m 0 10 l 5 -5 m 268 0 a 12 12 0 0 1 12 12 v 0 a 12 12 0 0 0 12 12 h -24"/>
<g class="sequence">
<a class="link" xlink:href="#Value">
<g class="symbol">
<rect height="22" width="60" x="214" y="400"/>
<text x="244" y="416">
Value</text>
</g>
</a>
<g class="character">
<rect height="22" rx="10" ry="10" width="52" x="284" y="400"/>
<text x="310" y="416">
HIDE</text>
</g>
<g class="repeat">
<path d=" M 346 411 h 12 m 254 0 h 12 m -12 0 a 12 12 0 0 1 12 12 v 7 a 12 12 0 0 1 -12 12 m -52 0 h -202 m 104 0 l 5 -5 m 0 10 l -5 -5 m -104 0 a 12 12 0 0 1 -12 -12 v -7 a 12 12 0 0 1 12 -12"/>
<text class="comment" x="586" y="447">
[0, ∞]</text>
<g class="sequence">
<g class="character">
<rect height="22" rx="10" ry="10" width="52" x="358" y="400"/>
<text x="384" y="416">
HIDE</text>
</g>
<g class="sequence">
<a class="link" xlink:href="#COMMA">
<g class="symbol">
<rect height="22" width="60" x="420" y="400"/>
<text x="450" y="416">
COMMA</text>
</g>
</a>
<g class="character">
<rect height="22" rx="10" ry="10" width="52" x="490" y="400"/>
<text x="516" y="416">
HIDE</text>
</g>
<a class="link" xlink:href="#Value">
<g class="symbol">
<rect height="22" width="60" x="552" y="400"/>
<text x="582" y="416">
Value</text>
</g>
</a>
<path d=" M 480 411 h 10"/>
<path d=" M 542 411 h 10"/>
</g>
<path d=" M 410 411 h 10"/>
</g>
</g>
<g class="character">
<rect height="22" rx="10" ry="10" width="52" x="634" y="400"/>
<text x="660" y="416">
HIDE</text>
</g>
<a class="link" xlink:href="#COMMA">
<g class="symbol">
<rect height="22" width="60" x="696" y="400"/>
<text x="726" y="416">
COMMA</text>
</g>
</a>
<path d=" M 274 411 h 10"/>
<path d=" M 336 411 h 10"/>
<path d=" M 624 411 h 10"/>
<path d=" M 686 411 h 10"/>
</g>
</g>
<g class="character">
<rect height="22" rx="10" ry="10" width="52" x="790" y="400"/>
<text x="816" y="416">
HIDE</text>
</g>
<g class="string">
<rect height="22" rx="10" ry="10" width="28" x="852" y="400"/>
<text x="866" y="416">
]</text>
</g>
<path d=" M 118 411 h 10"/>
<path d=" M 180 411 h 10"/>
<path d=" M 780 411 h 10"/>
<path d=" M 842 411 h 10"/>
</g>
<path d=" M 890 411 h 5 a 5 5 0 0 1 5 -5 a 5 5 0 0 1 5 5 a 5 5 0 0 1 -5 5 a 5 5 0 0 1 -5 -5"/>
<path d=" M 25 411 h 10"/>
<path d=" M 80 411 h 10"/>
<path d=" M 880 411 h 10"/>
</g>
<g class="sequence">
<path d=" M 10 475 a 5 5 0 0 1 5 -5 a 5 5 0 0 1 5 5 a 5 5 0 0 1 -5 5 a 5 5 0 0 1 -5 -5 m 10 0 h 5"/>
<text class="comment" id="String" x="61" y="480">
String</text>
<g class="choice">
<path d=" M 97 475 h 24 m 224 0 h 24"/>
<g class="sequence">
<g class="string">
<rect height="22" rx="10" ry="10" width="28" x="121" y="464"/>
<text x="135" y="480">
&quot;</text>
</g>
<g class="repeat">
<path d=" M 159 475 h 12 m 124 0 h 12 m -12 0 a 12 12 0 0 1 12 12 v 7 a 12 12 0 0 1 -12 12 m -52 0 h -72 m 39 0 l 5 -5 m 0 10 l -5 -5 m -39 0 a 12 12 0 0 1 -12 -12 v -7 a 12 12 0 0 1 12 -12"/>
<text class="comment" x="269" y="511">
[0, ∞]</text>
<a class="link" xlink:href="#StringElement">
<g class="symbol">
<rect height="22" width="124" x="171" y="464"/>
<text x="233" y="480">
StringElement</text>
</g>
</a>
</g>
<g class="string">
<rect height="22" rx="10" ry="10" width="28" x="317" y="464"/>
<text x="331" y="480">
&quot;</text>
</g>
<path d=" M 149 475 h 10"/>
<path d=" M 307 475 h 10"/>
</g>
<path d=" M 97 475 a 12 12 0 0 1 12 12 v 39 m 248 0 v -39 a 12 12 0 0 1 12 -12"/>
<path d=" M 109 526 v 0 a 12 12 0 0 0 12 12 m 224 0 h 0 a 12 12 0 0 0 12 -12 v 0"/>
<g class="sequence">
<g class="string">
<rect height="22" rx="10" ry="10" width="28" x="121" y="527"/>
<text x="135" y="543">
&#x27;</text>
</g>
<g class="repeat">
<path d=" M 159 538 h 12 m 124 0 h 12 m -12 0 a 12 12 0 0 1 12 12 v 7 a 12 12 0 0 1 -12 12 m -52 0 h -72 m 39 0 l 5 -5 m 0 10 l -5 -5 m -39 0 a 12 12 0 0 1 -12 -12 v -7 a 12 12 0 0 1 12 -12"/>
<text class="comment" x="269" y="574">
[0, ∞]</text>
<a class="link" xlink:href="#StringElement">
<g class="symbol">
<rect height="22" width="124" x="171" y="527"/>
<text x="233" y="543">
StringElement</text>
</g>
</a>
</g>
<g class="string">
<rect height="22" rx="10" ry="10" width="28" x="317" y="527"/>
<text x="331" y="543">
&#x27;</text>
</g>
<path d=" M 149 538 h 10"/>
<path d=" M 307 538 h 10"/>
</g>
</g>
<path d=" M 379 475 h 5 a 5 5 0 0 1 5 -5 a 5 5 0 0 1 5 5 a 5 5 0 0 1 -5 5 a 5 5 0 0 1 -5 -5"/>
<path d=" M 25 475 h 10"/>
<path d=" M 87 475 h 10"/>
<path d=" M 369 475 h 10"/>
</g>
<g class="sequence">
<path d=" M 10 602 a 5 5 0 0 1 5 -5 a 5 5 0 0 1 5 5 a 5 5 0 0 1 -5 5 a 5 5 0 0 1 -5 -5 m 10 0 h 5"/>
<text class="comment" id="StringElement" x="85" y="607">
StringElement</text>
<g class="choice">
<path d=" M 146 602 h 24 m 122 0 h 24"/>
<g class="sequence">
<g class="string">
<rect height="22" rx="10" ry="10" width="28" x="170" y="591"/>
<text x="184" y="607">
\</text>
</g>
<a class="link" xlink:href="#HexDigit">
<g class="symbol">
<rect height="22" width="84" x="208" y="591"/>
<text x="250" y="607">
HexDigit</text>
</g>
</a>
<path d=" M 198 602 h 10"/>
</g>
<path d=" M 146 602 a 12 12 0 0 1 12 12 v 9 m 146 0 v -9 a 12 12 0 0 1 12 -12"/>
<path d=" M 158 623 v 33 m 146 0 v -33"/>
<path d=" M 158 623 v 0 a 12 12 0 0 0 12 12 m 114 0 h 8 a 12 12 0 0 0 12 -12 v 0"/>
<g class="sequence">
<g class="string">
<rect height="22" rx="10" ry="10" width="28" x="170" y="624"/>
<text x="184" y="640">
\</text>
</g>
<a class="link" xlink:href="#Escaped">
<g class="symbol">
<rect height="22" width="76" x="208" y="624"/>
<text x="246" y="640">
Escaped</text>
</g>
</a>
<path d=" M 198 635 h 10"/>
</g>
<path d=" M 158 656 v 0 a 12 12 0 0 0 12 12 m 100 0 h 22 a 12 12 0 0 0 12 -12 v 0"/>
<a class="link" xlink:href="#StringText">
<g class="symbol">
<rect height="22" width="100" x="170" y="657"/>
<text x="220" y="673">
StringText</text>
</g>
</a>
</g>
<path d=" M 326 602 h 5 a 5 5 0 0 1 5 -5 a 5 5 0 0 1 5 5 a 5 5 0 0 1 -5 5 a 5 5 0 0 1 -5 -5"/>
<path d=" M 25 602 h 10"/>
<path d=" M 136 602 h 10"/>
<path d=" M 316 602 h 10"/>
</g>
<g class="sequence">
<path d=" M 10 702 a 5 5 0 0 1 5 -5 a 5 5 0 0 1 5 5 a 5 5 0 0 1 -5 5 a 5 5 0 0 1 -5 -5 m 10 0 h 5"/>
<text class="comment" id="HexDigit" x="68" y="707">
HexDigit</text>
<g class="string">
<rect height="22" rx="10" ry="10" width="132" x="111" y="691"/>
<text x="177" y="707">
[0-9a-fA-F]{4}</text>
</g>
<path d=" M 253 702 h 5 a 5 5 0 0 1 5 -5 a 5 5 0 0 1 5 5 a 5 5 0 0 1 -5 5 a 5 5 0 0 1 -5 -5"/>
<path d=" M 25 702 h 10"/>
<path d=" M 101 702 h 10"/>
<path d=" M 243 702 h 10"/>
</g>
<g class="sequence">
<path d=" M 10 736 a 5 5 0 0 1 5 -5 a 5 5 0 0 1 5 5 a 5 5 0 0 1 -5 5 a 5 5 0 0 1 -5 -5 m 10 0 h 5"/>
<text class="comment" id="Escaped" x="64" y="741">
Escaped</text>
<g class="character">
<rect height="22" rx="10" ry="10" width="44" x="104" y="725"/>
<text x="126" y="741">
ANY</text>
</g>
<path d=" M 158 736 h 5 a 5 5 0 0 1 5 -5 a 5 5 0 0 1 5 5 a 5 5 0 0 1 -5 5 a 5 5 0 0 1 -5 -5"/>
<path d=" M 25 736 h 10"/>
<path d=" M 94 736 h 10"/>
<path d=" M 148 736 h 10"/>
</g>
<g class="sequence">
<path d=" M 10 770 a 5 5 0 0 1 5 -5 a 5 5 0 0 1 5 5 a 5 5 0 0 1 -5 5 a 5 5 0 0 1 -5 -5 m 10 0 h 5"/>
<text class="comment" id="StringText" x="75" y="775">
StringText</text>
<g class="string">
<rect height="22" rx="10" ry="10" width="84" x="125" y="759"/>
<text x="167" y="775">
[^&quot;&#x27;\\]+</text>
</g>
<path d=" M 219 770 h 5 a 5 5 0 0 1 5 -5 a 5 5 0 0 1 5 5 a 5 5 0 0 1 -5 5 a 5 5 0 0 1 -5 -5"/>
<path d=" M 25 770 h 10"/>
<path d=" M 115 770 h 10"/>
<path d=" M 209 770 h 10"/>
</g>
<g class="sequence">
<path d=" M 10 804 a 5 5 0 0 1 5 -5 a 5 5 0 0 1 5 5 a 5 5 0 0 1 -5 5 a 5 5 0 0 1 -5 -5 m 10 0 h 5"/>
<text class="comment" id="Number" x="61" y="809">
Number</text>
<g class="string">
<rect height="22" rx="10" ry="10" width="188" x="97" y="793"/>
<text x="191" y="809">
[+-]?(0|[1-9][0-9]*)</text>
</g>
<path d=" M 295 804 h 5 a 5 5 0 0 1 5 -5 a 5 5 0 0 1 5 5 a 5 5 0 0 1 -5 5 a 5 5 0 0 1 -5 -5"/>
<path d=" M 25 804 h 10"/>
<path d=" M 87 804 h 10"/>
<path d=" M 285 804 h 10"/>
</g>
<g class="sequence">
<path d=" M 10 838 a 5 5 0 0 1 5 -5 a 5 5 0 0 1 5 5 a 5 5 0 0 1 -5 5 a 5 5 0 0 1 -5 -5 m 10 0 h 5"/>
<text class="comment" id="Boolean" x="64" y="843">
Boolean</text>
<g class="choice">
<path d=" M 104 838 h 24 m 52 0 h 32"/>
<g class="string">
<rect height="22" rx="10" ry="10" width="52" x="128" y="827"/>
<text x="154" y="843">
true</text>
</g>
<path d=" M 104 838 a 12 12 0 0 1 12 12 v 9 m 84 0 v -9 a 12 12 0 0 1 12 -12"/>
<path d=" M 116 859 v 0 a 12 12 0 0 0 12 12 m 60 0 h 0 a 12 12 0 0 0 12 -12 v 0"/>
<g class="string">
<rect height="22" rx="10" ry="10" width="60" x="128" y="860"/>
<text x="158" y="876">
false</text>
</g>
</g>
<path d=" M 222 838 h 5 a 5 5 0 0 1 5 -5 a 5 5 0 0 1 5 5 a 5 5 0 0 1 -5 5 a 5 5 0 0 1 -5 -5"/>
<path d=" M 25 838 h 10"/>
<path d=" M 94 838 h 10"/>
<path d=" M 212 838 h 10"/>
</g>
<g class="sequence">
<path d=" M 10 905 a 5 5 0 0 1 5 -5 a 5 5 0 0 1 5 5 a 5 5 0 0 1 -5 5 a 5 5 0 0 1 -5 -5 m 10 0 h 5"/>
<text class="comment" id="Null" x="54" y="910">
Null</text>
<g class="string">
<rect height="22" rx="10" ry="10" width="52" x="83" y="894"/>
<text x="109" y="910">
null</text>
</g>
<path d=" M 145 905 h 5 a 5 5 0 0 1 5 -5 a 5 5 0 0 1 5 5 a 5 5 0 0 1 -5 5 a 5 5 0 0 1 -5 -5"/>
<path d=" M 25 905 h 10"/>
<path d=" M 73 905 h 10"/>
<path d=" M 135 905 h 10"/>
</g>
<g class="sequence">
<path d=" M 10 939 a 5 5 0 0 1 5 -5 a 5 5 0 0 1 5 5 a 5 5 0 0 1 -5 5 a 5 5 0 0 1 -5 -5 m 10 0 h 5"/>
<text class="comment" id="Identifier" x="75" y="944">
Identifier</text>
<g class="string">
<rect height="22" rx="10" ry="10" width="308" x="125" y="928"/>
<text x="279" y="944">
[_\p{XID_start}][\p{XID_continue}]*</text>
</g>
<path d=" M 443 939 h 5 a 5 5 0 0 1 5 -5 a 5 5 0 0 1 5 5 a 5 5 0 0 1 -5 5 a 5 5 0 0 1 -5 -5"/>
<path d=" M 25 939 h 10"/>
<path d=" M 115 939 h 10"/>
<path d=" M 433 939 h 10"/>
</g>
<g class="sequence">
<path d=" M 10 973 a 5 5 0 0 1 5 -5 a 5 5 0 0 1 5 5 a 5 5 0 0 1 -5 5 a 5 5 0 0 1 -5 -5 m 10 0 h 5"/>
<text class="comment" id="COLON" x="57" y="978">
COLON</text>
<g class="string">
<rect height="22" rx="10" ry="10" width="28" x="90" y="962"/>
<text x="104" y="978">
:</text>
</g>
<path d=" M 128 973 h 5 a 5 5 0 0 1 5 -5 a 5 5 0 0 1 5 5 a 5 5 0 0 1 -5 5 a 5 5 0 0 1 -5 -5"/>
<path d=" M 25 973 h 10"/>
<path d=" M 80 973 h 10"/>
<path d=" M 118 973 h 10"/>
</g>
<g class="sequence">
<path d=" M 10 1007 a 5 5 0 0 1 5 -5 a 5 5 0 0 1 5 5 a 5 5 0 0 1 -5 5 a 5 5 0 0 1 -5 -5 m 10 0 h 5"/>
<text class="comment" id="COMMA" x="57" y="1012">
COMMA</text>
<g class="string">
<rect height="22" rx="10" ry="10" width="28" x="90" y="996"/>
<text x="104" y="1012">
,</text>
</g>
<path d=" M 128 1007 h 5 a 5 5 0 0 1 5 -5 a 5 5 0 0 1 5 5 a 5 5 0 0 1 -5 5 a 5 5 0 0 1 -5 -5"/>
<path d=" M 25 1007 h 10"/>
<path d=" M 80 1007 h 10"/>
<path d=" M 118 1007 h 10"/>
</g>
<g class="sequence">
<path d=" M 10 1041 a 5 5 0 0 1 5 -5 a 5 5 0 0 1 5 5 a 5 5 0 0 1 -5 5 a 5 5 0 0 1 -5 -5 m 10 0 h 5"/>
<text class="comment" id="Comment" x="64" y="1046">
Comment</text>
<g class="sequence">
<g class="string">
<rect height="22" rx="10" ry="10" width="28" x="104" y="1030"/>
<text x="118" y="1046">
#</text>
</g>
<g class="character">
<rect height="22" rx="10" ry="10" width="116" x="142" y="1030"/>
<text x="200" y="1046">
REST_OF_LINE</text>
</g>
<path d=" M 132 1041 h 10"/>
</g>
<path d=" M 268 1041 h 5 a 5 5 0 0 1 5 -5 a 5 5 0 0 1 5 5 a 5 5 0 0 1 -5 5 a 5 5 0 0 1 -5 -5"/>
<path d=" M 25 1041 h 10"/>
<path d=" M 94 1041 h 10"/>
<path d=" M 258 1041 h 10"/>
</g>
<g class="sequence">
<path d=" M 10 1075 a 5 5 0 0 1 5 -5 a 5 5 0 0 1 5 5 a 5 5 0 0 1 -5 5 a 5 5 0 0 1 -5 -5 m 10 0 h 5"/>
<text class="comment" id="WhiteSpace" x="75" y="1080">
WhiteSpace</text>
<g class="choice">
<path d=" M 125 1075 h 24 m 28 0 h 32"/>
<g class="string">
<rect height="22" rx="10" ry="10" width="28" x="149" y="1064"/>
<text x="163" y="1080">
 </text>
</g>
<path d=" M 125 1075 a 12 12 0 0 1 12 12 v 9 m 60 0 v -9 a 12 12 0 0 1 12 -12"/>
<path d=" M 137 1096 v 33 m 60 0 v -33"/>
<path d=" M 137 1096 v 0 a 12 12 0 0 0 12 12 m 36 0 h 0 a 12 12 0 0 0 12 -12 v 0"/>
<g class="string">
<rect height="22" rx="10" ry="10" width="36" x="149" y="1097"/>
<text x="167" y="1113">
\n</text>
</g>
<path d=" M 137 1129 v 0 a 12 12 0 0 0 12 12 m 36 0 h 0 a 12 12 0 0 0 12 -12 v 0"/>
<g class="string">
<rect height="22" rx="10" ry="10" width="36" x="149" y="1130"/>
<text x="167" y="1146">
\r</text>
</g>
</g>
<path d=" M 219 1075 h 5 a 5 5 0 0 1 5 -5 a 5 5 0 0 1 5 5 a 5 5 0 0 1 -5 5 a 5 5 0 0 1 -5 -5"/>
<path d=" M 25 1075 h 10"/>
<path d=" M 115 1075 h 10"/>
<path d=" M 209 1075 h 10"/>
</g>
</g>
</svg>
